<?xml version="1.0" encoding="utf-8"?>
<!DOCTYPE svg PUBLIC "-//W3C//DTD SVG 1.1//EN" "http://www.w3.org/Graphics/SVG/1.1/DTD/svg11.dtd">
<svg version="1.1" id="Layer_1" xmlns="http://www.w3.org/2000/svg" xmlns:xlink="http://www.w3.org/1999/xlink" x="0px" y="0px"
	 width="332px" height="332px" viewBox="0 0 332 332" enable-background="new 0 0 332 332" xml:space="preserve">
<g>
	<path fill="#483737" d="M166-0.001C74.319-0.001,0,74.319,0,166c0,91.68,74.319,166,166,166c91.678,0,166-74.32,166-166
		C332,74.319,257.678-0.001,166-0.001z M165.999,220.5c-30.1,0-54.5-24.4-54.5-54.5c0-30.101,24.4-54.501,54.5-54.501
		c30.101,0,54.501,24.4,54.501,54.501C220.5,196.1,196.1,220.5,165.999,220.5z"/>
	<path fill="#6C5D53" d="M191.433,214.2c-7.594,4.016-16.246,6.299-25.434,6.299c-30.1,0-54.5-24.401-54.5-54.501
		s24.4-54.5,54.5-54.5c9.961,0,19.29,2.686,27.325,7.353l55.735-96.604C224.628,8.102,196.261,0,166,0C74.319,0,0,74.319,0,166
		c0,91.679,74.319,165.999,166,165.999c28.623,0,55.554-7.245,79.06-20L191.433,214.2z"/>
</g>
<g>
	<path fill="#6C5D53" d="M248.155,184.483l-11.829,33.284h-15.209l38.699-105.816h17.744l38.868,105.816h-15.716l-12.167-33.284
		H248.155z M285.502,173.807l-11.153-30.458c-2.535-6.908-4.225-13.188-5.915-19.311h-0.338c-1.69,6.28-3.549,12.717-5.746,19.154
		l-11.153,30.614H285.502z"/>
</g>
</svg>
