<?xml version="1.0" encoding="utf-8"?>
<!DOCTYPE svg PUBLIC "-//W3C//DTD SVG 1.1//EN" "http://www.w3.org/Graphics/SVG/1.1/DTD/svg11.dtd">
<svg version="1.1" id="Layer_1" xmlns="http://www.w3.org/2000/svg" xmlns:xlink="http://www.w3.org/1999/xlink" x="0px" y="0px"
	 width="685.499px" height="332px" viewBox="0 0 685.499 332" enable-background="new 0 0 685.499 332" xml:space="preserve">
<!-- circle with A -->
<g>
  <animateTransform attributeName="transform" attributeType="XML" calcMode="spline" 
                    type="rotate" dur="3s" values="0 166 166;2880 166 166" keyTimes="0;1" keySplines=".5 .5 .75 1" />
	<path fill="#483737" d="M166-0.001C74.319-0.001,0,74.319,0,166c0,91.68,74.319,166,166,166c91.678,0,166-74.32,166-166
		C332,74.319,257.678-0.001,166-0.001z M165.999,220.5c-30.1,0-54.5-24.4-54.5-54.5c0-30.101,24.4-54.501,54.5-54.501
		c30.101,0,54.501,24.4,54.501,54.501C220.5,196.1,196.1,220.5,165.999,220.5z"/>
	<path fill="#6C5D53" d="M191.433,214.2c-7.594,4.016-16.246,6.299-25.434,6.299c-30.1,0-54.5-24.401-54.5-54.501
		s24.4-54.5,54.5-54.5c9.961,0,19.29,2.686,27.325,7.353l55.735-96.604C224.628,8.102,196.261,0,166,0C74.319,0,0,74.319,0,166
		c0,91.679,74.319,165.999,166,165.999c28.623,0,55.554-7.245,79.06-20L191.433,214.2z"/>
	<path fill="#6C5D53" d="M248.155,184.483l-11.829,33.284h-15.209l38.699-105.816h17.744l38.868,105.816h-15.716l-12.167-33.284
		H248.155z M285.502,173.807l-11.153-30.458c-2.535-6.908-4.225-13.188-5.915-19.311h-0.338c-1.69,6.28-3.549,12.717-5.746,19.154
		l-11.153,30.614H285.502z"/>
</g>
<!-- lbum text -->
<g>
	<path fill="#483737" d="M339.58,108.261h14.872v111.468H339.58V108.261z"/>
	<path fill="#483737" d="M379.459,108.261h14.702v47.727h0.339c5.238-8.478,14.702-13.973,27.883-13.973
		c20.279,0,34.644,15.7,34.475,38.778c0,27.16-18.42,40.662-36.671,40.662c-11.83,0-21.293-4.238-27.377-14.286h-0.507l-0.676,12.56
		h-12.844c0.338-5.182,0.676-12.874,0.676-19.625V108.261z M394.162,189.272c0,1.727,0.339,3.454,0.677,5.024
		c2.872,9.576,11.491,16.171,22.307,16.171c15.547,0,24.842-11.775,24.842-29.202c0-15.229-8.45-28.26-24.335-28.26
		c-10.14,0-19.603,6.437-22.645,16.956c-0.338,1.57-0.846,3.454-0.846,5.652V189.272z"/>
	<path fill="#483737" d="M544.054,199.006c0,7.85,0.169,14.758,0.677,20.724h-13.182l-0.845-12.402h-0.338
		c-3.887,6.123-12.506,14.129-27.039,14.129c-12.843,0-28.222-6.594-28.222-33.283v-44.43h14.871v42.075
		c0,14.444,4.732,24.177,18.251,24.177c9.971,0,16.899-6.437,19.604-12.559c0.845-2.041,1.352-4.553,1.352-7.065v-46.628h14.871
		V199.006z"/>
	<path fill="#483737" d="M568.725,164.309c0-7.85-0.169-14.287-0.676-20.566h13.013l0.676,12.246h0.507
		c4.563-7.222,12.168-13.973,25.687-13.973c11.153,0,19.604,6.28,23.152,15.229h0.338c2.535-4.239,5.745-7.536,9.125-9.891
		c4.901-3.454,10.309-5.338,18.082-5.338c10.815,0,26.87,6.594,26.87,32.97v44.744h-14.533v-43.018
		c0-14.601-5.746-23.393-17.744-23.393c-8.449,0-15.04,5.809-17.575,12.56c-0.676,1.884-1.183,4.396-1.183,6.908v46.942H619.93
		V174.2c0-12.089-5.746-20.881-17.068-20.881c-9.295,0-16.055,6.908-18.42,13.816c-0.845,2.041-1.184,4.396-1.184,6.751v45.843
		h-14.533V164.309z"/>
</g>
</svg>
